<?xml version="1.0" encoding="utf-8"?>
<!-- Generator: Adobe Illustrator 28.0.0, SVG Export Plug-In . SVG Version: 6.00 Build 0)  -->
<svg version="1.1" id="Layer_1" xmlns="http://www.w3.org/2000/svg" xmlns:xlink="http://www.w3.org/1999/xlink" x="0px" y="0px"
	 viewBox="0 0 217 237" style="enable-background:new 0 0 217 237;" xml:space="preserve">
<style type="text/css">
	.st0{display:none;}
	.st1{display:inline;fill:#B4BFC3;}
	.st2{display:inline;fill:#F7E5F1;}
	.st3{display:inline;fill:#CDA1B7;}
	.st4{display:inline;fill:#FDFCFB;}
	.st5{fill:#BA1E49;}
	.st6{fill:#820E47;}
	.st7{fill:#C35965;}
	.st8{fill:#FDFCFB;}
	.st9{fill:#A53A39;}
	.st10{fill:#751822;}
	.st11{fill:#F98A46;}
	.st12{fill:#ED7947;}
	.st13{fill:#FFB993;}
	.st14{fill:url(#SVGID_1_);}
	.st15{fill:#D37180;}
	.st16{fill:#FEDBB6;}
	.st17{fill:#F68975;}
	.st18{fill:#F5928D;}
	.st19{fill:#E0828C;}
	.st20{fill:#FD9C77;}
	.st21{fill:#8A2625;}
	.st22{fill:#C04E37;}
	.st23{fill:#241E1C;}
	.st24{fill:url(#SVGID_00000176756470360986948990000011665494459094249372_);}
	.st25{fill:#DB6540;}
	.st26{fill:#4C1118;}
	.st27{fill:#CD3768;}
</style>
<g>
	<g id="Background_00000043444146666387640650000002199452811281177532_" class="st0">
		<path class="st1" d="M229-8.2c0,119.6,0,119.6,0,239.1c-119.6,0-119.6,0-239.1,0c0-119.6,0-119.6,0-239.1
			C109.5-8.2,109.5-8.2,229-8.2z"/>
		<path class="st2" d="M174.4,169.1c-1.2-1.6-8.3-9.5-9.9-11c-7.9-7-17.1-10.1-27.7-9.8c0-1.7-0.4-3.6-0.5-5.4
			c6.7-4.6,11.4-11.5,14-19.1c2.8-1.6,6.3-2.6,9-4.7c1.8-1.4,6.1-6.3,4.8-8.2c5.6-7.6,1.4-18.8-9.3-14.7
			c2.5-12.9,12.2-37.3-2.3-44.8c-3.4-2.7-10.4-3.6-14.6-2.6c-1.5-8.3-8.6-11.9-16-13.8c-14.3-3.6-30.1-2.7-43.8,3.5
			c-8.8,4-12.7,8.5-24.4,13.1c-1.4,0.5-2.9,0.9-4.2,1.5c0,0.2,0.5,0.3,0.5,0.4c0.6,1.4,3.8,4,5.1,4.7c-1-0.8-0.8,5.7-0.7,6.4
			c0.3,1.9,4.5,6.7,5.4,9.6c1.2,4,1.3,13.6,1.4,18.2c-0.4,1-6.9,0.7-6.1,13.8c0.6,9,4.3,16.5,14.1,17.2c0.7,0.3,4,10.6,5.5,13.9
			c1,2.2,3.2,5.3,4.2,7.9c0.9,2.5-1.5,3.2,4.8,2.9c0.3-2.3,0.3-2.3,0.6-4.7c0.2,0.2,0.2,0.2,0.2,0.2c0,2.8-0.7,4.4-0.7,4.7
			c-16.9-0.3-28.5,7.3-38.5,20.3c-36.5-35.2-30-96.7,7.1-128.9c28.4-24.6,75.5-26.1,106.7-6.1C204.5,62.8,212.4,130.7,174.4,169.1z"
			/>
		<path class="st3" d="M44.1,170.2c4.2,3.3,13.1,7.4,18.3,9.3c21.1,7.6,51,8.8,73,5.1c13.3-2.2,28.4-7.2,39.7-14.7
			c2.6,4.6-2.7,10.5-6.4,13.1c-14.9,10.6-49.5,14.1-67.5,13.3c-13.5-0.6-45.7-5.9-54.5-16.9C45,177.4,42.3,171.9,44.1,170.2z"/>
		<path class="st4" d="M150.3,123.8c0.3-1,2.2-7.7,2.3-8.2c4.3,0.1,8.8-1,11.4-4.7c1.4,1.9-2.9,6.7-4.8,8.2
			C156.6,121.2,153.1,122.2,150.3,123.8z"/>
	</g>
	<g>
		<g>
			<path class="st5" d="M83.8,148.3c-0.1,1.5,0.1,3.1,0,4.6c8.6,7,17.7,13.6,27,19.7c4.8-3.5,4.8-3.5,9.7-7c0.1,0,0.1,0,0.2,0
				c7.4,9.6,7.4,9.6,14.7,19.1c-22,3.7-51.9,2.5-73-5.1c-5.2-1.9-14.1-6-18.3-9.3c0.7-0.7,1-1.4,1.2-1.6
				C55.2,155.5,66.8,147.9,83.8,148.3z"/>
			<path class="st6" d="M174.4,169.1c0.2,0.3,0.6,0.7,0.7,0.9c-11.2,7.5-26.4,12.5-39.7,14.7c-7.4-9.6-7.4-9.6-14.7-19.1
				c5.6-4.2,11.2-8.3,16.1-13.2c0-1.4,0-2.7,0-4.1c10.5-0.3,19.8,2.8,27.7,9.8C166.1,159.5,173.2,167.4,174.4,169.1z"/>
		</g>
		<path class="st7" d="M164.1,110.9c-2.7,3.6-7.1,4.8-11.4,4.7c0.7-3.9,1-10.2,1.2-14.4c0.5-2.5,0.5-2.5,0.9-5
			C165.5,92.1,169.7,103.3,164.1,110.9z"/>
		<g>
			<path class="st8" d="M55,58.1c4.7,2.3,10,1.3,14.9,0.5C68.2,59.3,55.2,64.2,55,65c0.1,0.2,0.7,0.5,0.7,0.6
				c1.6,2.4,6.6,5.1,9.3,6.3c0.4,8.2,1.9,16.2,2.8,24.3c-16.6-4.9-14.4,22-1.3,19.6c0.7-0.1,1.7-0.7,2.2-1.2c0,0,0.3-0.2,0.5-0.2
				c0.6,4.7,1.6,9.1,3.3,13.5c2.6,7.1,5.5,11,11.7,15.4c-0.3,2.3-0.3,2.3-0.6,4.7c-6.3,0.3-3.9-0.5-4.8-2.9c-1-2.6-3.2-5.8-4.2-7.9
				c-1.4-3.3-4.8-13.6-5.5-13.9c-9.8-0.7-13.5-8.2-14.1-17.2c-0.9-13.1,5.7-12.8,6.1-13.8C61,87.7,61,78.2,59.7,74.1
				c-0.9-2.9-5-7.7-5.4-9.6C54.2,63.9,54,57.3,55,58.1z"/>
			<g>
				<path class="st9" d="M152.4,51.4c0.4,0.3,1.7,1.5,1.6,2c-3.9,3.6-5.9,8.7-9.6,12.5c-5.6-13.7-27.8-3.5-42.6-0.7
					C94,66.6,86,67.7,78,67.9c-0.7,2.3-1,4.7-1.5,7c-0.1,0.3-0.2,0.2-0.2,0.2c-3.9-0.8-7.6-1.7-11.2-3.3c-2.7-1.2-7.7-3.9-9.3-6.3
					c0.3,0,0.7,0.1,0.9,0c-0.2,1.1,6,4.9,6.4,4.9c2.8,0.1-1.7-5.3-1.1-6.8c10.6-3.8,13.3-3.5,21.6-5.8c12.4-3.5,19-7.8,28.8-15.6
					c3.1-2.5,5.9-5.3,9.3-7.2c7.4,1.9,14.5,5.5,16,13.8C142,47.7,149.1,48.6,152.4,51.4z"/>
				<path class="st10" d="M154.8,96.2c-0.5,2.5-0.5,2.5-0.9,5c-0.2,4.1-0.4,10.4-1.2,14.4c-0.1,0.5-2,7.2-2.3,8.2
					c-2.6,7.6-7.3,14.5-14,19.1c-5.5,3.8-17.5,9.3-24.1,10c-0.1-0.8,0.8-0.3,0.9-0.6c0.1-0.3-0.2-5.4,0-6.2
					c14.2-1.8,28.4-14.4,32.9-27.8c4-11.9,3.7-24.5,1.9-36.8c-0.5-3.1-2.5-13.3-3.5-15.8c3.7-3.8,5.7-8.9,9.6-12.5
					c0.1-0.5-1.3-1.7-1.6-2C166.9,58.9,157.3,83.3,154.8,96.2z"/>
				<path class="st11" d="M121.8,35c-3.5,1.9-6.2,4.8-9.3,7.2c0.3-0.9-1.7,1-2.2,1.2c-1.2,0.4-16.9,1.2-25.7,2.8
					c-4.8,0.9-28.6,7.1-31.1,6.3c-0.8-0.2,0.2-0.4,0.1-0.9c11.7-4.5,15.6-9.1,24.4-13.1C91.7,32.3,107.5,31.4,121.8,35z"/>
				<path class="st12" d="M112.5,42.3c-9.9,7.9-16.4,12.2-28.8,15.6c-8.3,2.3-11,2-21.6,5.8c-1.2,0.4-4.9,1.8-5.4,1.9
					c-0.3,0.1-0.6,0-0.9,0c0,0-0.6-0.3-0.7-0.6c0.1-0.8,13.2-5.8,14.9-6.4c1.3-0.5,2.7-0.7,3.9-1.4c-8.1-0.1-16.3-0.9-23.9-3.7
					c0,0-0.4-0.2-0.5-0.4c1.3-0.6,2.8-1,4.2-1.5c0.1,0.5-0.9,0.7-0.1,0.9c2.4,0.8,26.3-5.4,31.1-6.3c8.7-1.6,24.4-2.4,25.7-2.8
					C110.8,43.3,112.8,41.3,112.5,42.3z"/>
				<g>
					<path class="st13" d="M98.2,151.1c11.1,7.2,11.1,7.2,22.2,14.5c-4.8,3.5-4.8,3.5-9.7,7c-9.3-6.2-18.3-12.7-27-19.7
						c0.1-1.5-0.1-3.1,0-4.6c0-0.2,0.7-1.8,0.7-4.7C87.1,145.5,95.3,150,98.2,151.1z"/>
					<path class="st7" d="M136.8,148.3c0,1.4,0,2.7,0,4.1c-4.9,4.9-10.5,9-16.1,13.2c-0.1,0-0.1,0-0.2,0
						c-11.1-7.2-11.1-7.2-22.2-14.5c4.3,1.5,9.5,2.4,14,1.9c6.6-0.8,18.5-6.2,24.1-10C136.4,144.7,136.8,146.5,136.8,148.3z"/>
				</g>
				<linearGradient id="SVGID_1_" gradientUnits="userSpaceOnUse" x1="74.3539" y1="135.2476" x2="111.9862" y2="145.4661">
					<stop  offset="0" style="stop-color:#A73A3A"/>
					<stop  offset="1" style="stop-color:#892128"/>
				</linearGradient>
				<path class="st14" d="M77.9,126.8c4.3,10.3,21.9,21.1,35.3,19.4c-0.2,0.8,0.1,5.9,0,6.2c-0.2,0.3-1.1-0.2-0.9,0.6
					c-4.5,0.5-9.7-0.4-14-1.9c-2.9-1-11.1-5.6-13.8-7.5c0,0,0-0.1-0.2-0.2c-6.1-4.4-9.1-8.3-11.7-15.4
					C75.2,127.4,75.2,127.4,77.9,126.8z"/>
				<path class="st9" d="M70,58.6c-5,0.8-10.2,1.8-14.9-0.5c-1.4-0.7-4.5-3.3-5.1-4.7c7.7,2.9,15.8,3.6,23.9,3.7
					C72.7,57.9,71.3,58.1,70,58.6z"/>
				<path class="st15" d="M144.5,65.8c1,2.5,3,12.7,3.5,15.8c1.8,12.3,2.2,24.9-1.9,36.8c-1.3-0.7-2.8-0.6-4.2-0.9
					c-1.2-1-0.1-2,0-3.4c1.1-10.2,0.7-20.5-0.9-30.6c-0.5-0.1,0.2,1.3-0.9,0.6c-0.4-0.9-4.5-3.5-5.6-4c0.1-4,0.1-4,0.1-7.9
					c-19.3,0.5-38.7,4.3-58,2.8c0.5-2.3,0.8-4.7,1.5-7c8-0.3,16-1.3,23.8-2.8C116.7,62.3,138.9,52.1,144.5,65.8z"/>
				<path class="st12" d="M76.3,75.2c-2.7,13.9-3.4,28.6-0.7,42.5c0.6,3.1,1.1,6.1,2.3,9.1c-2.7,0.6-2.7,0.6-5.4,1.2
					c-1.6-4.4-2.7-8.9-3.3-13.5c-0.4-2.9-0.5-7.8-0.9-11.9c-0.2-2.1-0.2-4.2-0.5-6.3c-0.9-8.1-2.4-16.1-2.8-24.3
					C68.7,73.5,72.4,74.4,76.3,75.2z"/>
				<path class="st9" d="M62.1,63.7c-0.7,1.4,3.9,6.9,1.1,6.8c-0.4,0-6.6-3.8-6.4-4.9C57.1,65.5,60.8,64.2,62.1,63.7z"/>
				<g>
					<path class="st16" d="M67.9,96.2c0.2,2.1,0.2,4.3,0.5,6.3c-7.4-4.6-11,6.2-5.3,10.5c2,1.5,3.5,1.2,5.7,1.6
						c-0.5,0.5-1.6,1-2.2,1.2C53.5,118.2,51.3,91.3,67.9,96.2z"/>
					<path class="st17" d="M68.4,102.5c0.5,4.2,0.6,9,0.9,11.9c-0.1,0-0.4,0.2-0.5,0.2c-2.3-0.4-3.8-0.2-5.7-1.6
						C57.3,108.7,60.9,97.9,68.4,102.5z"/>
				</g>
				<path class="st18" d="M97.1,104.8c-0.6,4-5.1,5.9-8.2,7.7c0,0,0.1-0.4-0.9,0.1c0.2,0.4,0.2,0.7,0.2,1.1
					c-2.9,1.9-5.9,3.2-9.3,3.7c-3.5-1.9-3.3-6.5-1.4-9.5c1.3-2,4.3-2.7,4.7-3.9c0.6,0.5,2.4-2,4.6-2.8
					C90.8,99.8,95.1,100.5,97.1,104.8z"/>
				<path class="st11" d="M131.4,113c0,1-2.3,4.4-3.2,5.1c-3,2.5-7,2.1-7.4,3.3c-6.7,0.1-13.6,0.8-20.3,0c-6.2-0.7-9-1.8-11.2-7.7
					c5,1.2,10,2.8,15.2,2.3c7.2,6.2,14,0.3,14.7,0C120.9,115.5,127.8,114.6,131.4,113z"/>
				<path class="st19" d="M141.9,117.4c-1.2-0.3-2.4-0.6-3.5-0.9c2-4.5,1.6-5.7,1.6-9.8c0-5.2-0.4-14.2-3.3-18.7
					c1.7-0.4,4.3-1.7,3.3-4c1.1,0.7,0.4-0.7,0.9-0.6c1.7,10.1,2,20.4,0.9,30.6C141.8,115.5,140.7,116.5,141.9,117.4z"/>
				<path class="st9" d="M134.4,80.1c1.1,0.4,5.2,3,5.6,4c1,2.2-1.6,3.5-3.3,4c-3.7-5.8-11.8-4-12.4-5.7
					C123.3,79,128.5,77.7,134.4,80.1z"/>
				<g>
					<path class="st20" d="M119,109.7c-3,6.8-12.3,8-16.6,1.9c1.2-0.4,3.9-0.1,6-1.2c3-1.6,3-6.1,7.5-5.1
						C118,105.8,118.7,108,119,109.7z"/>
					<path class="st21" d="M119.3,116c-0.8,0.3-7.5,6.2-14.7,0c-1.3-1.1-2-2.7-2.8-4.1c-0.1-0.6,0.5-0.3,0.7-0.4
						c4.2,6.1,13.6,4.9,16.6-1.9C119.5,112,119.7,113.8,119.3,116z"/>
				</g>
				<g>
					<path class="st16" d="M134.4,80.1c-5.9-2.3-11.2-1.1-10,2.2c0.6,1.7,8.7-0.1,12.4,5.7c2.8,4.5,3.3,13.5,3.3,18.7
						c-0.9-0.5-1.4-1.4-2.1-2.1c0.7-9.2-16.8-9-14.5,0.5c1,4,4,5.9,7.8,7c0.1,0.2,0.1,0.2,0.1,0.5c0,0.2,0,0.3,0,0.5
						c-3.6,1.6-10.5,2.5-12.1,3c0.4-2.3,0.2-4.1-0.2-6.3c-0.4-1.7-1-4-3.2-4.4c-4.5-1-4.5,3.6-7.5,5.1c-2.1,1.1-4.8,0.7-6,1.2
						c-0.2,0.1-0.8-0.2-0.7,0.4c0.8,1.4,1.5,3,2.8,4.1c-5.1,0.5-10.2-1.2-15.2-2.3c-0.1-0.4-0.2-0.8-0.5-1.2
						c3.1-1.8,7.6-3.7,8.2-7.7c1.2-8.6-13.4-10.3-14.9-0.7c-0.3,1.1-3.3,1.9-4.7,3.9c-1.9,2.9-2.1,7.6,1.4,9.5
						c-1,0.1-2.2,0.2-3.3,0.2c-2.7-13.9-2-28.6,0.7-42.5c0,0,0.2,0.1,0.2-0.2c19.3,1.5,38.7-2.3,58-2.8
						C134.5,76.1,134.5,76.1,134.4,80.1z"/>
					<path class="st22" d="M89.7,79.2c1.9-0.2,5.4,0.2,5.7,2.7c0.3,2.9-1.2,0.7-5.3,1.5c-3.9,0.7-7.6,5.2-8.8,3.4
						C79.6,83.8,87.4,79.4,89.7,79.2z"/>
				</g>
				<g>
					<path class="st18" d="M137.9,104.6c0.7,0.7,1.2,1.6,2.1,2.1c0,4.1,0.4,5.3-1.6,9.8c-1.9-0.6-3.6-1.3-5.4-2.1
						c0.1-1.4-0.1-3-1.6-1.9c-0.1-0.2-0.1-0.2-0.1-0.5c-3.8-1.1-6.8-3-7.8-7C127.2,98.4,133.2,99.9,137.9,104.6z"/>
					<path class="st23" d="M137.9,104.6c-4.7-4.7-10.7-6.2-14.5,0.5C121.1,95.6,138.6,95.4,137.9,104.6z"/>
				</g>
				<path class="st23" d="M97.1,104.8c-1.9-4.3-6.3-5-10.4-3.5c-2.2,0.8-4,3.3-4.6,2.8C83.7,94.6,98.3,96.3,97.1,104.8z"/>
				<path class="st8" d="M111.3,133.8c6.2-0.2,9.8-3.6,9.6-0.2c-8,7.2-15.6,7.5-22.6-0.9c0.2-0.8,0.3-1.6,0.5-2.3
					c1.6,0.3,3.8,2,5.7,2.6C106.2,133.4,109.5,133.8,111.3,133.8z"/>
				<g>
					
						<linearGradient id="SVGID_00000050652716650669335010000014456152526935443364_" gradientUnits="userSpaceOnUse" x1="84.8264" y1="112.9909" x2="134.1347" y2="137.069">
						<stop  offset="0.417" style="stop-color:#EF7F4C"/>
						<stop  offset="1" style="stop-color:#C8553C"/>
					</linearGradient>
					<path style="fill:url(#SVGID_00000050652716650669335010000014456152526935443364_);" d="M88.2,113.7c0.8,5,6.6,14.9,10,18.9
						c7.1,8.4,14.6,8.1,22.6,0.9c0.8-0.7,1.4-1.6,2.1-2.3c3.5-3.7,9.6-11.8,10-16.8c1.8,0.8,3.5,1.5,5.4,2.1
						c1.1,0.3,2.3,0.7,3.5,0.9c1.4,0.3,2.9,0.3,4.2,0.9c-4.6,13.4-18.7,26-32.9,27.8c-13.4,1.7-31-9-35.3-19.4c-1.2-3-1.7-6-2.3-9.1
						c1-0.1,2.3-0.1,3.3-0.2C82.3,117,85.3,115.6,88.2,113.7z"/>
					<path class="st25" d="M79.7,120.7c5.1,9.4,10.8,14.9,20.4,19.7c0,0.9-5.1-1.9-5.7-2.2c-3.6-2-9.3-6.7-11.6-10.2
						C82.5,127.5,78.7,120.7,79.7,120.7z"/>
				</g>
				<g>
					<path class="st26" d="M133,114.4c-0.4,5-6.5,13.1-10,16.8c-1.5-1.8-1.5-1.8-2.9-3.5c-5.5,0-11-0.6-16.5,0
						c-2.6,0.3-4-0.5-4.9,2.6c-0.2,0.7-0.3,1.6-0.5,2.3c-3.4-4-9.3-13.9-10-18.9c-0.1-0.4-0.1-0.7-0.2-1.1c1-0.5,0.9-0.1,0.9-0.1
						c0.3,0.4,0.3,0.8,0.5,1.2c2.2,5.9,5.1,7,11.2,7.7c0.1,0.5-0.1,1.6,0,1.8c0.6,0.9,19.5,0.7,20.2-0.1c0.3-0.4,0-1.2,0.1-1.6
						c0.3-1.2,4.3-0.7,7.4-3.3c0.9-0.7,3.1-4.1,3.2-5.1c0-0.2,0-0.3,0-0.5C132.9,111.4,133.1,113,133,114.4z"/>
					<path class="st8" d="M120.9,121.4c-0.1,0.4,0.2,1.3-0.1,1.6c-0.7,0.8-19.6,1-20.2,0.1c-0.1-0.2,0.1-1.2,0-1.8
						C107.3,122.2,114.2,121.5,120.9,121.4z"/>
					<g>
						<path class="st21" d="M123,131.2c-0.7,0.8-1.3,1.6-2.1,2.3c0.2-3.4-3.4,0.1-9.6,0.2c-1.8-2.4-5.1-4.6-7.7-6.1
							c5.5-0.6,11,0,16.5,0C121.5,129.5,121.5,129.5,123,131.2z"/>
						<path class="st27" d="M103.6,127.7c2.6,1.5,5.9,3.7,7.7,6.1c-1.8,0-5.1-0.4-6.9-0.9c-1.9-0.6-4.1-2.2-5.7-2.6
							C99.6,127.2,101,128,103.6,127.7z"/>
					</g>
				</g>
			</g>
		</g>
	</g>
</g>
</svg>
