<?xml version="1.0" encoding="utf-8"?>
<!-- Generator: Adobe Illustrator 28.0.0, SVG Export Plug-In . SVG Version: 6.00 Build 0)  -->
<svg version="1.1" id="Layer_1" xmlns="http://www.w3.org/2000/svg" xmlns:xlink="http://www.w3.org/1999/xlink" x="0px" y="0px"
	 viewBox="0 0 217 237" style="enable-background:new 0 0 217 237;" xml:space="preserve">
<style type="text/css">
	.st0{display:none;}
	.st1{display:inline;fill:#C3AFB0;}
	.st2{display:inline;fill:#FACDC8;}
	.st3{fill:#FEB384;}
	.st4{fill:#E4856F;}
	.st5{fill:#FACDC8;}
	.st6{fill:#843D51;}
	.st7{fill:#A86876;}
	.st8{fill:#6E3040;}
	.st9{fill:#5B2830;}
	.st10{fill:#F6B6AD;}
	.st11{fill:#573342;}
	.st12{fill:#F4A19E;}
	.st13{fill:#7E1D33;}
	.st14{fill:#B52B47;}
	.st15{fill:#2F202A;}
	.st16{fill:#432934;}
	.st17{fill:#FD8360;}
	.st18{fill:#FCE4D0;}
	.st19{fill:#B7E3C3;}
	.st20{fill:#CC3C55;}
	.st21{fill:#9E2130;}
	.st22{fill:#BECDC6;}
	.st23{fill:#A1BA5A;}
	.st24{fill:#E0C970;}
	.st25{fill:#5E9055;}
	.st26{fill:#C1E0D2;}
	.st27{fill:#78A565;}
	.st28{fill:#FAEFE7;}
	.st29{fill:#1B1A20;}
	.st30{fill:url(#SVGID_1_);}
	.st31{fill:#272B46;}
	.st32{fill:#5B5E8B;}
	.st33{fill:#FFCB9A;}
	.st34{fill:#E7C9D5;}
	.st35{fill:#BE393A;}
	.st36{fill:#F8D48F;}
	.st37{fill:#FE9769;}
	.st38{fill:#9E141B;}
	.st39{fill:#1D1119;}
	.st40{fill:#FFFAFF;}
</style>
<g>
	<g id="Background_00000129195940191903644910000013263600251531519664_" class="st0">
		<path class="st1" d="M231-8.2c0,119.6,0,119.6,0,239.1c-119.6,0-119.6,0-239.1,0c0-119.6,0-119.6,0-239.1
			C111.5-8.2,111.5-8.2,231-8.2z"/>
		<path class="st2" d="M84.8,33.6c0.2,4.2,2.5,10.5,5.1,13.8c-19.9,8.2-37.3,19.5-44.6,40.7c-0.6,0.6-3.7,0.3-5.5,1.1
			c-0.8,0.3-0.8,0.9-0.8,0.9c-1.7,1.1-2.9,2-4,3.7c-1-0.3-2.3,4.3-2.3,5c-0.2,2,0.8,8.3,1.6,10.5c0.1,0.6-0.9,0.2-0.9,0.5
			c-0.1,1.5,1.4,16,1.4,19.8c0.4,2.4,3.4,11.2,5.4,12.4c-0.5,1.9,0.1,7.2,1.4,7.1c0,0.1,0,0.2,0,0.2c0,0.1-0.8,0-0.7,1.1
			c0,0.4,2.4,5.9,2.8,6.5c6.1,10.3,19.6,12.2,20.1,13.3c-0.2,5-0.2,5-0.5,9.9c-1.9-0.9-13-10-15.1-11.9
			c-11.7-10.8-25.1-31.6-26.7-47.5c-1-9.2,0.1-19.1,2.3-28c1.1-4.6,5-12.9,3.3-12.7c3-5.5,3-5.5,6.1-11.1
			C44.8,51.7,63.7,35.9,84.8,33.6z"/>
		<path class="st2" d="M195.5,116.5c-1.2,0-8.3,0.3-8.6-0.4c-0.6-8.8-2.5-17.1-4.4-25.7c-0.4-0.1-0.4-0.1-0.7-0.1
			c0.4-1.5,2.3-8.5,2.3-9c0.4-4.5-4.2-2.6-7.2-2.7c-8.2-0.2-16.4-0.3-24.6,0c-0.1,0.1-0.2,0.8-0.4,1.2c-1.9-3,9.1-1,13.8-1.8
			c-11.8-9.9-30.5-21.3-45.9-23c-1.6-0.2-1.2,0.5-1.5,0.5c-0.1,0-0.2,0-0.2,0c-0.1,0,0.3-0.9-0.7-0.7c1.5-1.1,3-4.5,1.6-5.8
			c0.6-3,0-6.7,0.2-9.8c0.1-0.7-0.2-1.4,0.2-2.1c13.1,1.6,26.3,5,37.5,12.1C179.7,68.5,196.6,84.3,195.5,116.5z"/>
		<path class="st2" d="M63.4,180.3c0,0-0.1,0.3,0.2,0.2c0.1,1.5,0.1,1.5,0.2,3c-4.8,0.5-12.1-0.8-15.6,1.6c-3.5-4.2-8-7.4-11.4-11.6
			c-11.7-14.5-15.8-34.3-16.6-52.5c-0.6-15.4,0.4-26.8,7-41c1.7-0.1-2.1,8.2-3.3,12.7c-2.2,8.9-3.3,18.9-2.3,28
			c1.7,15.9,15,36.7,26.7,47.5C50.4,170.3,61.5,179.4,63.4,180.3z"/>
		<path class="st2" d="M90,47.4c0,0,0.6,0.3,0.7,0.7c-0.8,2.5-1.2,5-2.1,7.5c-0.9,2.4-2.7,6.2-4,8.2c0,0-0.7-0.4-0.7-0.6
			c-0.3-1.8,3.4-5.7-5.8-1.8c-2.2,0.9-2.6,1.3-4.4,2.6c-2.2,1.5-4,2.8-5.8,4.7c-5.6,5.5-9.9,12.9-12.6,20.3
			c-3.6,0.3-10.5-0.4-13.2,0c-0.9,0.1-1.7,0.9-1.8,0.9c-0.2,0.1-0.7-0.2-1.2,0.2c0.1,0,0-0.6,0.8-0.9c1.8-0.8,4.9-0.5,5.5-1.1
			C52.6,66.9,70.1,55.6,90,47.4z"/>
		<path class="st2" d="M41.6,149.4c4.3,7.2,15.7,4.6,23.2,5.4c0.4,0.3-0.3,8.2-0.4,9.3c-0.2,5.4-0.2,10.9-0.9,16.3
			c-0.3,0-0.2-0.2-0.2-0.2c0.2-5,0.2-5,0.5-9.9c-0.5-1.1-14-3-20.1-13.3c-0.4-0.7-2.8-6.2-2.8-6.5C40.8,149.5,41.6,149.5,41.6,149.4
			z"/>
		<path class="st2" d="M35.1,93.9c-1.3,2.2-1.9,4.6-1.9,7.1c0,1.1,2.3,13.9,2.6,14.7c1.1,2.7,3.5,2.6,6,2.5c4.1,12-4,21.5-0.1,31.1
			c-1.3,0.1-1.9-5.2-1.4-7.1c-2-1.2-4.9-10-5.4-12.4c0-3.9-1.5-18.4-1.4-19.8c0-0.3,1,0.2,0.9-0.5c-0.8-2.2-1.8-8.5-1.6-10.5
			C32.8,98.2,34.1,93.5,35.1,93.9z"/>
		<path class="st2" d="M151.8,79.9c-0.8,2.1-3,17.7-4.2,22.9c-3.3-2.5-5.5-3.5-8.6-0.5c-5.9-1.4-8.8,1.8-12,0
			c-3.2,0.8-6.3,0.5-9.6,0.5c-1.4-5.6-5.1-10.6-5.3-16.5c-1.7-0.8-3.2-6.5-5.1-9.9c-2.4-4.2-3.5-3.7-7.5-6.3
			c0.2-0.2,1.5-3.7,2.1-4.4c1.2,1.1,4.8,3.1,6.4,3.3c8.3,1.1,10.6-6.5,10.2-13.3c0.3,0,0-0.6,1.5-0.5c15.4,1.7,34.1,13.1,45.9,23
			C160.9,78.9,149.9,76.8,151.8,79.9z"/>
		<path class="st1" d="M162.1,173.5c-0.1,0.7,0,1.6,0,2.3c0.1,2.1,0.3,4.2,0.5,6.3c-0.5,0-3.8,0-4,0.4c0,3.7,0,3.7,0,7.5
			c3.3,0.5,3.5-0.8,4.4,1.3c0.7,1.6,2.1,10.2,3.3,13.5c-8.2,0.4-16.6-0.6-24.8,0.2c1.1-10.6-10.9-8.1-11.6-8.6
			c-0.3-0.2,0.4-1.9-1.3-2.3c0.5-4.9,0.8-9.8,0.9-14.7c8.3,0.5,16.3-1.4,24.3-3.3c2.8,0,5.6-1.5,7.9-2.8
			C161.9,173.5,161.9,173.5,162.1,173.5z"/>
		<path class="st1" d="M85.5,196.1c-0.1,1.4-0.1,6.8,0,8.4c-15.7,0.1-15.7,0.1-31.4,0.2c0.4-2.1-3.2-5.8-4.8-6.1
			c2.6-3.1,0.6-8.6,1.8-9.1c15.3,0,15.3,0,30.6,0C82.8,190.1,80.2,195,85.5,196.1z"/>
		<path class="st1" d="M122.2,197.8c0.1,2-0.2,6,0,7c-9.1,0-9.1,0-18.2,0c0.4-8.8-9.7-7.8-10.2-8.4c-0.3-0.4,0-2.1-0.1-2.8
			c0.2-0.2,0.2-0.2,0.5-0.5c2.6,2,16.1,6.1,18.1,6.3C116.8,199.8,118.1,197.4,122.2,197.8z"/>
		<path class="st2" d="M173.3,136.8c1.2,4.7,1.2,4.7,2.3,9.3c0.4,1.1-2.8,3.7-3.3,6.5c-0.3,0-0.2-0.2-0.2-0.2
			c-1.8-2.7-5-4.5-8.1-5.6c-12.8-4.6-16.4,0.6-16.7,12.8c0,1.6-0.2,3.3,0.5,4.8c-2.4,2.2-3.2,3.2-1.9,6.4c-3.5-3.4,2.9-6.7,1.1-7.7
			c-0.7-0.4-14.2,0.5-16.3-0.2c-1.5,0.4,0.3,7.8-1.1,8.6c0.1-6.9,0.4-13.9-0.2-20.8c-0.4-4.2-0.8-11.8-4.4-14.2
			c15.9-0.4,31.8-0.3,47.8-0.2C172.8,136.4,173.1,136.8,173.3,136.8z"/>
		<path class="st1" d="M176.1,164.6c1.2,1.5,2.7,2.6,4,4c-2.5,0.7-4.9,0.8-7.5,0.9c0-1-0.2-2-0.2-3
			C174.3,165.6,174.3,165.6,176.1,164.6z"/>
		<path class="st2" d="M87.2,154.6c-0.3,8.6-0.9,17.2-1.4,25.8c-0.1,1.8-0.7,3.7-0.7,3.9c-7.5-0.1-7.5-0.1-14.9-0.1
			c-0.1-7.1,0-14.2,0.2-21.4c0-1.2-0.3-7.9,0.4-8.2C78.9,154.6,78.9,154.6,87.2,154.6z"/>
		<path class="st2" d="M51.9,131.9c-0.2,4.3,0.1,8.8,2.8,12.4c-1.3-0.1-7.6,0.3-7.9-0.4c0.5-4.7,0.7-9.6,2.3-14.1
			C49.3,130,51.7,131.9,51.9,131.9z"/>
		<path class="st2" d="M146,170.9c1.3,3.3,4.4,5.2,7.9,5.1c-8,1.9-16,3.8-24.3,3.3c0.1-2.6,0-5.1,0-7.7c1.3-0.8-0.4-8.3,1.1-8.6
			c2.2,0.7,15.6-0.2,16.3,0.2C148.9,164.3,142.5,167.5,146,170.9z"/>
		<path class="st2" d="M120.8,194.3c0.3,0.1,1-0.3,1.4,0.4c0,1,0,2.1,0,3.2c-4-0.4-5.4,2.1-9.9,1.6c-2-0.2-15.5-4.3-18.1-6.3
			c1.1-2.7,2.3-5.5,3.5-8.2c9.6,0.2,9.6,0.2,19.3,0.5C118.5,187,118.9,193.5,120.8,194.3z"/>
		<path class="st2" d="M120.8,194c0,0.1,0,0.1,0,0.2c-1.9-0.8-2.3-7.2-3.9-8.9c-9.6-0.2-9.6-0.2-19.3-0.5
			c3.9-9.1,7.3-18.6,11.7-27.6C112.1,169.9,116.5,182,120.8,194z"/>
	</g>
	<g>
		<g>
			<path class="st3" d="M169.4,210.8c2.5-0.4,10.8-2.7,8.2-3.5c1-0.1,1.9,0,2.9,0c0.1-0.6,0.7-1.6,0.8-2.1c1.1-0.3,24.7,0.8,20.4,3
				c-1.4,0.7-28.6,3.3-31.3,3C170.4,211.3,169.4,211,169.4,210.8z"/>
			<g>
				<path class="st4" d="M85.5,204.5c0.1,1-0.2,1.9,0.4,2.3c9-0.1,9-0.1,18-0.2c0.2-0.2,0.1-1.5,0.1-1.9c9.1,0,9.1,0,18.2,0
					c0.1,0.3-0.1,0.6,0.4,0.9c4.6-0.3,16.1,0.4,18.9,0c0.2,0,0.1-0.7,0.1-0.7c8.2-0.8,16.6,0.1,24.8-0.2c0.3,0.9,0.4,1.8,0.8,2.6
					c1,0,2.1,0,3.2,0c2,0.1,5.2,0.1,7.2,0c2.7,0.8-5.7,3.1-8.2,3.5c-0.7,0.1-1,0.5-1.1,0.5c-3.2,0.4-55.3,0.2-64.2,0.2
					c-19.3,0-57.5,0.5-74.5-1.2c-2.4-0.2-15.3-2-16.6-2.8c-0.3-0.2-0.7-0.6-0.5-0.7c10.1-1.9,20.3-2.5,30.6-2.3
					c0-2.3,2.1-5.1,4.3-5.6c0.2,0,1.8-0.2,1.9-0.2c1.6,0.2,5.1,4,4.8,6.1C69.8,204.7,69.8,204.7,85.5,204.5z"/>
				<path class="st4" d="M48.1,199.9c5.8-0.8,6.3,8.8,1.2,9.1C43.9,209.3,42.9,200.6,48.1,199.9z"/>
			</g>
		</g>
		<path class="st5" d="M190.1,136.8c-3.7,2-3.7,2-7.5,4c-0.1-1.9-0.1-1.9-0.2-3.7C185,137.1,187.6,136.6,190.1,136.8z"/>
		<g>
			<path class="st6" d="M181.7,90.4c-1,3.6-4.6,13.8-4.7,14.6c-0.4,2.8,1.5,8.5,2.3,9.2c-0.5,0,0.2,0.4-0.1,0.5
				c-3.2,0.6-27.2-0.7-33.7-0.2c-0.5-0.7-0.7-0.4-1.4-0.5c0.9-1.2,1-2.6,1.4-4c0.2-0.6,0.3-1.3,0.5-1.9c0.4-1.3,1.1-2.4,1.4-3.7
				c14.7-12.8,14.7-12.8,29.4-25.7c3,0.1,7.7-1.8,7.2,2.7C184,81.8,182.1,88.8,181.7,90.4z"/>
			<path class="st7" d="M176.8,78.7c-14.7,12.8-14.7,12.8-29.4,25.7c0.1-0.3,0.1-1,0.2-1.6c1.2-5.2,3.4-20.8,4.2-22.9
				c0.1-0.4,0.2-1.1,0.4-1.2C160.4,78.4,168.6,78.5,176.8,78.7z"/>
			<path class="st8" d="M185,115.3c-0.8-0.1-0.1,0.4-0.4,0.5c-1.6,0.3-29.3,0.4-33.2,0.2c-5-0.2-6.9,0.1-6-1.6
				c6.6-0.5,30.6,0.9,33.7,0.2c0.3-0.1-0.4-0.4,0.1-0.5C180.9,115.5,183.3,113.7,185,115.3z"/>
			<path class="st9" d="M141.3,113.7c1.5,0.1,2.2,0,2.3,0c0,0-0.2,0.2,0.5,0.2c0.7,0,0.9-0.2,1.4,0.5c-1,1.8,1,1.4,6,1.6
				c3.8,0.2,31.5,0.1,33.2-0.2c0.3-0.1-0.5-0.6,0.4-0.5c0.2,0.2,0.9,0.4,0.6,0.9c-12.6-0.5-32.1,0.7-43.4,0c0,0-0.7-0.5-0.7-0.5
				c-4.5-0.3-5.6,1-5.7-1.2c0-0.4,0-0.6,0.2-0.9C138.4,113.9,140.8,113.7,141.3,113.7z"/>
		</g>
		<g>
			<path class="st5" d="M195.5,116.5c2.3,0.1,8.5-0.9,9.1,2c0.9,4-2.1,3.3-4.4,3.4c-0.2-1.2-0.2-1.2-0.4-2.3
				c-24.8,0.1-24.8,0.1-49.5,0.2c-0.9-0.2-0.9-0.2-1.8-0.5c-6-3.4-5.1-1.5-9.7-1.6c-3.2-0.1-9.5-0.1-8.8-0.9
				c0.5-0.1,1.5-1.8,1.9-2.3c1.9,0.1,1.9,0.1,3.7,0.2c0.1,2.1,1.2,0.8,5.7,1.2c0,0,0.7,0.5,0.7,0.5c11.3,0.7,30.8-0.5,43.4,0
				c0.4-0.5-0.4-0.7-0.6-0.9c-1.7-1.6-4.1,0.1-5.6-1.2c-0.8-0.7-2.7-6.4-2.3-9.2c0.1-0.8,3.7-11,4.7-14.6c0.4,0.1,0.4,0.1,0.7,0.1
				c1.9,8.6,3.8,16.9,4.4,25.7C187.2,116.8,194.3,116.5,195.5,116.5z"/>
			<path class="st10" d="M200.2,121.9c-2.5,0.1-5,0-7.5,0c-0.8,0-1.6,0-2.3,0c-13.2,0.1-26.3,0-39.5,0c12.1-0.2,12.1-0.2,24.3-0.4
				c-12.2-0.1-12.2-0.1-24.4-0.1c-0.7-0.7-1.4-1.6-2.2-2.1c0.9,0.2,0.9,0.2,1.8,0.5c24.8-0.1,24.8-0.1,49.5-0.2
				C200,120.7,200,120.7,200.2,121.9z"/>
			<path class="st11" d="M175.4,136.6c2.3,0,4.6,0,6.9,0c0.2,0,0.1,0.5,0.1,0.5c0.1,1.9,0.1,1.9,0.2,3.7c-3.5,2.7-3.5,2.7-7,5.4
				c-1.2-4.7-1.2-4.7-2.3-9.3C173.4,136.8,173.6,136.6,175.4,136.6z"/>
			<path class="st12" d="M130.1,116.7c-0.7,0.9,5.6,0.9,8.8,0.9c4.6,0.1,3.7-1.8,9.7,1.6c0.8,0.5,1.6,1.4,2.2,2.1
				c12.2,0.1,12.2,0.1,24.4,0.1c-12.1,0.2-12.1,0.2-24.3,0.4c-18.3,0-36.6,0.2-54.9,0c-2.8,0-5.6,0-8.4,0c-1.2-0.8-1-4.7,0.4-5.1
				C90,116.1,124.5,117.2,130.1,116.7z"/>
			<g>
				<path class="st13" d="M150.9,121.9c13.2,0,26.3,0.1,39.5,0c0,0.2,0.1,0.4-0.1,0.5c-1.5,0.3-11.7-0.3-14.9,0
					c0.1,7.1,0.1,7.1,0.1,14.2c-1.8,0-2,0.2-2.1,0.2c-0.3,0-0.5-0.5-0.6-0.5c-15.9-0.1-31.8-0.1-47.8,0.2c-0.4,1.6-7.5,0.8-11.7,0.9
					c-1.4,0-2.9-0.4-3.3,0.7c0,0,0.1-0.6-0.4-0.7c-1.1-0.4-9,0.4-11,0c-3.4-0.7-2.9-5.8-2.9-8.6c0-0.9,0-1.9,0-2.8
					c0-1.3,0.5-2.8,0.2-4.2C114.3,122.1,132.6,121.9,150.9,121.9z"/>
				<g>
					<path class="st13" d="M192.7,121.9c0,7.1,0,7.1,0,14.2c-0.4,0-1.8,0.6-2.6,0.7c-2.6-0.2-5.2,0.2-7.7,0.2c0,0,0.1-0.5-0.1-0.5
						c-2.3,0-4.6,0-6.9,0c-0.1-7.1-0.1-7.1-0.1-14.2c3.3-0.3,13.5,0.3,14.9,0c0.2,0,0.1-0.3,0.1-0.5
						C191.2,121.9,191.9,121.9,192.7,121.9z"/>
					<path class="st14" d="M181.6,124.7c1.5-0.3,7.2-0.1,8.4,0.7c2.1,1.5,3.6,9.3-5.1,8.4C178.4,133.2,175.9,125.6,181.6,124.7z"/>
				</g>
			</g>
		</g>
		<g>
			<path class="st15" d="M54.7,90.6c-3,8.7-4.5,17.8-7.2,26.5c0,1.5-0.7,2.7-0.5,4.3c-1.5,3.6-0.6,5.9,2.1,8.4
				c-1.6,4.5-1.8,9.4-2.3,14.1c0.3,0.6,6.7,0.3,7.9,0.4c11.5,0.5,23,0.6,34.4,0.7c0.1,0.6,0.1,0.6,0.1,1.2c-1.2,2.7-1.4,5.6-2.1,8.4
				c-8.2,0-8.2,0-16.5,0c-0.6,0.3-0.3,7-0.4,8.2c-1.2-0.7-2.2-0.6-3.5-0.2c-2.9,0.8-1.3,1.2-2.3,1.6c0-1.2,0.7-9.1,0.4-9.3
				c-7.5-0.7-18.9,1.9-23.2-5.4c0-0.1,0-0.2,0-0.2c-3.9-9.6,4.2-19.1,0.1-31.1c-2.4,0.1-4.9,0.2-6-2.5c-0.3-0.8-2.6-13.6-2.6-14.7
				c0-2.5,0.5-5,1.9-7.1c1.1-1.8,2.3-2.7,4-3.7c0.5-0.4,1-0.2,1.2-0.2c-1.9,3.1-1.3,7-0.1,10.3c1.8-1.2,13.4-10.5,14.2-10.5
				C55,89.6,54.1,90.5,54.7,90.6z"/>
			<g>
				<path class="st11" d="M70.4,162.7c-0.2,7.1-0.3,14.2-0.2,21.4c7.5,0.1,7.5,0.1,14.9,0.1c-0.2,2.7,0,6.2-0.2,9
					c0.3,0.5,0.7,0.3,1.2,0.4c0.2,1.2-0.5,2.4-0.5,2.6c-5.4-1.1-2.7-6-3.9-6.5c-15.3,0-15.3,0-30.6,0c-1.1,0.5,0.9,6-1.8,9.1
					c-0.1,0-1.7,0.2-1.9,0.2c-3.7-3.5-3.7-10.8,0.7-13.8c3.5-2.4,10.9-1.1,15.6-1.6c0.5-0.1,1.9,0.2,2.1-0.4
					c0.5-10.3,0.5-10.3,0.9-20.7C68.2,162.2,69.1,162.1,70.4,162.7z"/>
				<path class="st16" d="M63.8,183.5c-0.1-1.5-0.1-1.5-0.2-3c0.7-5.4,0.7-10.9,0.9-16.3c1-0.4-0.5-0.9,2.3-1.6
					c-0.5,10.3-0.5,10.3-0.9,20.7C65.7,183.7,64.4,183.5,63.8,183.5z"/>
			</g>
			<path class="st11" d="M55.2,89c-0.2,0.5-0.3,1.1-0.5,1.6c-0.6-0.1,0.3-1-0.4-0.9c-0.9,0.1-12.5,9.3-14.2,10.5
				c-1.2-3.3-1.8-7.1,0.1-10.3c0.1,0,0.9-0.8,1.8-0.9C44.7,88.6,51.6,89.2,55.2,89z"/>
		</g>
		<g>
			<path class="st17" d="M136,113.7c-0.2,0.3-0.2,0.5-0.2,0.9c-1.9-0.1-1.9-0.1-3.7-0.2c0.3-0.4,0.7-0.8,0.7-1.4c0.1,0,0.2,0,0.2,0
				c0.8,0.1,1.6-0.1,2.5,0C135.6,113.5,135.3,113.7,136,113.7z"/>
			<path class="st3" d="M147.6,102.7c-0.1,0.6-0.2,1.4-0.2,1.6c-0.3,1.3-1,2.4-1.4,3.7c-1.6,1.6-4.1,3.3-4.7,5.6
				c-0.6,0-2.9,0.2-5.4,0c-0.7,0-0.3-0.2-0.6-0.7c-0.8-0.1-1.6,0.1-2.5,0c1.2-3.4,3.5-8.2,6.1-10.7
				C142.2,99.2,144.4,100.3,147.6,102.7z"/>
			<path class="st4" d="M145.5,110c-0.6-0.5-2.1,2.3-1.9,3.7c-0.1,0-0.8,0.1-2.3,0c0.5-2.3,3-4,4.7-5.6
				C145.8,108.7,145.7,109.4,145.5,110z"/>
			<path class="st18" d="M145.5,110c-0.4,1.4-0.5,2.8-1.4,4c-0.6,0-0.4-0.2-0.5-0.2C143.4,112.3,145,109.5,145.5,110z"/>
		</g>
		<g>
			<path class="st5" d="M176.1,164.6c-1.9,0.9-1.9,0.9-3.7,1.9c-0.1-2.2,0.3-4.2-0.5-4c0.5-1.9,0.3-2.6,0.5-4
				C173.7,160.6,174.6,162.7,176.1,164.6z"/>
			<path class="st19" d="M181,170.7c-0.4-0.1-1.7,0.1-1.9-0.1c-0.2-0.3,0.7-0.2,1.2-1.3c0.1,0.1,1,0.2,1.6,1.1
				C181.5,170.5,181.5,170.5,181,170.7z"/>
			<g>
				<path class="st14" d="M167,169.8c0.7,0,0.7,0,1.4,0c1.2,3,1.2,3,2.5,6.1c0.8,0.4,10-0.3,11.8-0.2c0.4,0,2.4-0.1,2.6,0.1
					c0.1,1-0.7,6-0.5,6.3c0.3,0.4,2.9-0.3,3.3,0.5c0,3.7,0,3.7,0,7.5c-2,0.2-2,0.2-4,0.5c-0.7,3.7-1.9,11.9-2.8,14.8
					c-0.1,0.5-0.7,1.5-0.8,2.1c-1,0-2-0.1-2.9,0c-2,0.1-5.2,0.1-7.2,0c3.3-0.8,6.9,0.5,10-0.8c0-0.7-10.8,0.7-10-5.8
					c0.1-0.6,3.1-5.6,3.6-6c1.6-1.2,9.1-2.3,9.5-2.7c0.1-0.1,0.4-1.9,0.4-2c-0.3-0.2-6.6-0.2-7.6-0.2c-0.1-3.7-0.1-3.7-0.2-7.4
					c-0.1-0.3-2.8-0.6-3.3-0.6c-0.9-2.9-0.9-2.9-1.8-5.8c-4.4-0.1-4.4-0.1-8.8-0.2c0-0.7-0.1-1.6,0-2.3c0.2,0,3.5-0.6,3.6-0.7
					c0.7-0.4,0.2-1.5,0.4-2.1C166.5,169.2,166.7,170,167,169.8z"/>
				<path class="st20" d="M180.1,168.6c0.3,0.3,0.2,0.7,0.2,0.7c-0.5,1.1-1.4,1-1.2,1.3c0.2,0.3,1.5,0.1,1.9,0.1
					c1.5,0.2,1.5,0.4,1.6,0.5c0,2.2,0,2.2,0,4.4c-1.8,0-11,0.7-11.8,0.2c-1.2-3-1.2-3-2.5-6.1c0.5,0,0.5,0,0.9,0
					c1.1,0.2,2.2-0.2,3.3-0.2C175.2,169.4,177.6,169.3,180.1,168.6z"/>
				<path class="st21" d="M170.3,207.3c-1,0-2.1,0-3.2,0c-0.4-0.8-0.5-1.7-0.8-2.6c-1.1-3.4-2.5-11.9-3.3-13.5c0.5-0.1,0-1,0.4-1.2
					c0.5-0.4,11.2-0.3,12.7-0.2c1,0,7.3,0,7.6,0.2c0.1,0-0.3,1.9-0.4,2c-0.4,0.3-7.9,1.4-9.5,2.7c-0.5,0.4-3.5,5.3-3.6,6
					c-0.7,6.5,10.1,5.2,10,5.8C177.2,207.9,173.6,206.6,170.3,207.3z"/>
				<path class="st21" d="M176.1,189.8c-1.6,0-12.2-0.1-12.7,0.2c-0.3,0.2,0.1,1.1-0.4,1.2c-0.9-2-1.1-0.8-4.4-1.3
					c0-3.7,0-3.7,0-7.5c0.1-0.4,3.5-0.3,4-0.4c3.3-0.1,6.6,0.1,9.9,0.2c0.2,0,0.1-0.5,0.1-0.5c0.5,0,3.1,0.3,3.3,0.6
					C176,186.2,176,186.2,176.1,189.8z"/>
				<path class="st21" d="M172.6,181.9c0,0,0.1,0.5-0.1,0.5c-3.3-0.1-6.6-0.3-9.9-0.2c-0.2-2.1-0.3-4.2-0.5-6.3
					c4.4,0.1,4.4,0.1,8.8,0.2C171.8,179,171.8,179,172.6,181.9z"/>
			</g>
			<path class="st22" d="M166.1,170.7c-0.1,0.6,0.3,1.7-0.4,2.1c-0.2,0.1-3.4,0.7-3.6,0.7c-0.2,0-0.3,0-0.2-0.2
				C163.3,172.5,164.6,171.4,166.1,170.7z"/>
			<path class="st3" d="M172.4,166.5c0,1,0.2,2,0.2,3c-1.1,0.1-2.2,0.4-3.3,0.2c0-0.9,0-0.9,0-1.9c1-1.1,2.2-3.9,2.6-5.4
				C172.7,162.3,172.3,164.2,172.4,166.5z"/>
			<g>
				<g>
					<path class="st23" d="M192.7,136.1c2.3-0.1,3-0.2,4.9,0.7c4.5,7.3,4.7,15.8,4.4,24.1c-0.9,4-4.1,12.3-8.8,13.1
						c-4.9,0.8-8-2-10.6-2.8c-0.1,0-0.1-0.2-1.6-0.5c0.5-0.2,0.5-0.2,0.9-0.4c-0.6-0.8-1.6-1-1.6-1.1c0,0,0-0.4-0.2-0.7
						c-1.3-1.3-2.8-2.5-4-4c-1.5-1.9-2.4-4-3.7-6.1c0.2-1.9,0.5-3.9,0-5.8c0.5-2.9,3.6-5.5,3.3-6.5c3.5-2.7,3.5-2.7,7-5.4
						c3.7-2,3.7-2,7.5-4C190.9,136.7,192.3,136.2,192.7,136.1z"/>
					<path class="st24" d="M202.1,160.9c0.3-8.3,0.1-16.8-4.4-24.1c5,2.3,5.8,15,5.4,20C202.9,158.2,202.4,159.6,202.1,160.9z"/>
				</g>
				<g>
					<path class="st25" d="M172.2,152.5c0,0-0.1,0.3,0.2,0.2c0.5,1.9,0.2,3.9,0,5.8c-0.1,1.4,0,2.1-0.5,4c-0.3,1.5-1.6,4.3-2.6,5.4
						c-0.6,0.7-1.6,1.2-2.3,1.9c-0.3,0.3-0.6-0.6-0.9,0.9c-1.5,0.7-2.8,1.8-4.2,2.6c-2.4,1.3-5.2,2.8-7.9,2.8
						c-3.5,0-6.6-1.9-7.9-5.1c-1.3-3.3-0.6-4.2,1.9-6.4c-0.6-1.5-0.5-3.2-0.5-4.8c4.9,6.4,13.1,10.1,19.1,2.9
						C169.9,158.6,169.7,154.1,172.2,152.5z"/>
					<path class="st26" d="M169.4,169.8c-0.5,0-0.5,0-0.9,0c-0.7,0-0.7,0-1.4,0c0.7-0.6,1.7-1.1,2.3-1.9
						C169.4,168.8,169.4,168.8,169.4,169.8z"/>
					<path class="st27" d="M172.2,152.5c-2.5,1.6-2.2,6.2-5.6,10.2c-6.1,7.2-14.3,3.5-19.1-2.9c0.3-12.2,3.9-17.4,16.7-12.8
						C167.1,147.9,170.4,149.8,172.2,152.5z"/>
				</g>
			</g>
		</g>
		<g>
			<path class="st28" d="M95.8,22.6c-5.1,1.2-11,4.3-11.2,10.3C78.9,30.8,87.9,18.7,95.8,22.6z"/>
			<g>
				<path class="st29" d="M90.2,193.6c1.2,0,2.3,0,3.5,0c0.1,0.7-0.2,2.4,0.1,2.8c0.5,0.6,10.6-0.4,10.2,8.4c0,0.4,0.1,1.7-0.1,1.9
					c-9,0.1-9,0.1-18,0.2c-0.6-0.4-0.3-1.4-0.4-2.3c-0.1-1.6-0.1-7,0-8.4c0-0.1,0.7-1.4,0.5-2.6C86.7,193.7,89.2,193.6,90.2,193.6z"
					/>
				<path class="st29" d="M128.7,194c1.6,0.5,0.9,2.1,1.3,2.3c0.7,0.5,12.7-2,11.6,8.6c0,0,0.1,0.7-0.1,0.7
					c-2.8,0.4-14.3-0.3-18.9,0c-0.5-0.3-0.3-0.6-0.4-0.9c-0.2-1,0.1-5,0-7c0-1,0-2.1,0-3.2c-0.4-0.6-1.1-0.2-1.4-0.4
					c0-0.1,0-0.1,0-0.2c1.9,0.3,4-0.3,5.8-0.2C126.9,193.8,128.6,194,128.7,194z"/>
			</g>
			<g>
				<path class="st14" d="M73.6,64c-4.8,8.7-2.3,31.9,3.3,39.6c9.5,13.2,41.3,8,55.8,9.5c0,0.6-0.4,1-0.7,1.4
					c-0.3,0.5-1.4,2.2-1.9,2.3c-5.6,0.5-40.1-0.6-42.1,0c-1.3,0.4-1.5,4.3-0.4,5.1c-2.1-0.3-0.7-3.4-0.9-4.9c0.6,0,1-0.5,1.1-0.5
					c3,0,6.2,0.3,9.2-0.4c-0.1-1.4-10.8,0.4-19.3-6.2c-9.6-7.5-11-24.5-10.6-35.7c0-0.6-0.6-0.6-0.5-1.3c0.6-1.6,2-3.3,1.2-4.3
					C69.7,66.8,71.4,65.4,73.6,64z"/>
				<path class="st14" d="M67.1,74.3c-1.6,1.7-0.6,4.3-1.6,6.7c-1.1,9.9-0.9,25,7.8,31.6c3.3,2.5,9.3,4.4,13.4,4.4
					c0.2,1.5-1.1,4.6,0.9,4.9c2.8,0,5.6,0,8.4,0c0.2,1.4-0.2,2.9-0.2,4.2c-9.7-1-38.7,4.9-45.9-0.2c-1-0.7-2.8-3.3-2.9-4.4
					c-0.2-1.6,0.5-2.8,0.5-4.3c2.8-8.7,4.3-17.8,7.2-26.5c0.2-0.5,0.3-1.1,0.5-1.6c2.7-7.4,7-14.8,12.6-20.3c0.9,1-0.6,2.7-1.2,4.3
					C66.5,73.6,67.1,73.6,67.1,74.3z"/>
				<path class="st21" d="M95.8,126.1c0,0.9,0,1.9,0,2.8c-2.7,0.8-2.7,0.8-5.5,1.6c-10.8,1.2-21.6,3-32.6,2.3
					c-1.7-0.1-4.2-0.2-5.8-0.9c-0.2-0.1-2.6-1.9-2.8-2.1c-2.7-2.5-3.6-4.8-2.1-8.4c0.2,1.1,1.9,3.7,2.9,4.4
					C57.1,131,86.1,125.1,95.8,126.1z"/>
				<path class="st20" d="M78.1,61.4c0,0.6-0.9,1.5-0.7,2c0.2,0.8,6.9,5.5,11.9,10.5c3.6,3.6,7,7.4,9.9,11.6c0.4,0.1,1.7-1.5,2-1.9
					c0.3-0.3,0.5,0.1,0.9-0.9c1.1,0.4,3.6-4.3,4.9-6.3c1.9,3.4,3.5,9.2,5.1,9.9c0.2,5.8,3.9,10.9,5.3,16.5c3.3,0.1,6.3,0.3,9.6-0.5
					c3.2,1.8,6.1-1.4,12,0c-2.6,2.5-4.8,7.3-6.1,10.7c-0.1,0-0.2,0-0.2,0c-14.5-1.4-46.3,3.8-55.8-9.5c-5.5-7.6-8.1-30.9-3.3-39.6
					C75.5,62.7,75.9,62.4,78.1,61.4z"/>
				<path class="st21" d="M84.6,63.7c0.6,0.8,7.6,6.7,10.7,10.7c2.2,2.8,4,6,5.8,9.1c-0.3,0.4-1.6,2-2,1.9c-2.9-4.1-6.4-8-9.9-11.6
					c-5-5-11.7-9.8-11.9-10.5c-0.2-0.5,0.7-1.4,0.7-2c9.3-4,5.5,0,5.8,1.8C83.9,63.3,84.6,63.7,84.6,63.7z"/>
				<path class="st21" d="M107,76.4c-1.3,2-3.8,6.7-4.9,6.3c3.1-6.6-2.2-9.6-3-11.7c-0.1-0.1,0-0.5,0-0.7c0,0,0.5-0.2,0.5-0.2
					C103.5,72.7,104.7,72.2,107,76.4z"/>
				<path class="st21" d="M86.7,117c-4.1-0.1-10.2-1.9-13.4-4.4c-8.7-6.7-8.9-21.7-7.8-31.6c1-2.4,0.1-5,1.6-6.7
					c-0.3,11.2,1,28.2,10.6,35.7c8.4,6.6,19.2,4.8,19.3,6.2c-3,0.6-6.2,0.4-9.2,0.4C87.7,116.5,87.3,117,86.7,117z"/>
			</g>
			<g>
				<linearGradient id="SVGID_1_" gradientUnits="userSpaceOnUse" x1="108.4598" y1="132.643" x2="79.6941" y2="186.9005">
					<stop  offset="0" style="stop-color:#392D52"/>
					<stop  offset="1" style="stop-color:#303F68"/>
				</linearGradient>
				<path class="st30" d="M110.1,138.2c1.5,1,3.4,3.3,3.3-0.7c4.2-0.1,11.3,0.7,11.7-0.9c3.7,2.4,4.1,10,4.4,14.2
					c-4.9,1.3-4.9,1.3-9.8,2.7c3.5,20.1,3.5,20.1,7,40.3c-1.8-0.1-4,0.6-5.8,0.2c-4.2-12.1-8.7-24.1-11.4-36.7
					c1.9-4.9,2.9-10,4-15.1c-2.7-0.5-12.9-1.1-14.2,1.4c-1.9,16.8-6.4,33.2-8.9,49.9c-1,0-3.5,0.1-4.2,0c-0.4-0.1-0.8,0.2-1.2-0.4
					c0.2-2.8,0.1-6.3,0.2-9c0-0.2,0.6-2.1,0.7-3.9c0.6-8.6,1.1-17.2,1.4-25.8c0.7-2.8,0.9-5.7,2.1-8.4c2.6-5.8,5.3-3.1-3.9-4
					c-10.4-0.9-14.5-4.5-22.6-7.5c-1.5-0.5-4.1-0.6-5-1.9c11,0.7,21.7-1.1,32.6-2.3c2.7-0.8,2.7-0.8,5.5-1.6c0,2.8-0.5,8,2.9,8.6
					c1.9,0.4,9.9-0.4,11,0C110.1,137.7,110,138.2,110.1,138.2z"/>
				<path class="st31" d="M57.7,132.9c0.9,1.3,3.5,1.3,5,1.9c8.1,2.9,12.2,6.5,22.6,7.5c9.2,0.8,6.4-1.8,3.9,4
					c-0.1-0.6-0.1-0.6-0.1-1.2c-11.5-0.1-23-0.2-34.4-0.7c-2.7-3.6-3-8-2.8-12.4C53.5,132.6,56.1,132.8,57.7,132.9z"/>
				<path class="st32" d="M129.4,150.8c0.6,6.9,0.3,13.9,0.2,20.8c0,2.6,0.1,5.1,0,7.7c-0.2,4.9-0.4,9.8-0.9,14.7
					c-0.1,0-1.8-0.2-2.1-0.2c-3.5-20.1-3.5-20.1-7-40.3C124.5,152.2,124.5,152.2,129.4,150.8z"/>
				<path class="st32" d="M109.4,157.4c-4.4,9-7.7,18.4-11.7,27.6c-1.2,2.7-2.4,5.4-3.5,8.2c-0.2,0.2-0.2,0.2-0.5,0.5
					c-1.2,0-2.3,0-3.5,0c2.5-16.7,6.9-33.1,8.9-49.9c1.4-2.5,11.6-1.9,14.2-1.4C112.2,147.4,111.2,152.5,109.4,157.4z"/>
				<path class="st21" d="M113.3,137.5c0.2,4-1.8,1.7-3.3,0.7C110.4,137.1,111.9,137.6,113.3,137.5z"/>
			</g>
			<g>
				<path class="st4" d="M95.8,40.9c-3.4,4.2-0.7,6.6-0.5,7.7c1.1,5.7,1.7,12.7,6.3,17c-0.6,0.7-1.9,4.2-2.1,4.4
					c0,0-0.4,0.2-0.5,0.2c-2.4,2.4-0.7-0.4-0.7-0.6c0.4-4.4-1.3-16.4-7.8-15.1c-0.7,0.2-1.5,1.4-2,0.9c0.9-2.5,1.3-5,2.1-7.5
					c0-0.1,0.3,0.1,0.9-2c0.3-0.9-0.4-3,2.1-5.5C93.8,41.1,95,40.7,95.8,40.9z"/>
				<path class="st33" d="M98.1,39.2c2.4,2.7,1.8,7.2-1.6,8.9c-0.5,0,0.2-0.3,0-0.9c1.6-1.4,2.3-3.6,0.9-5.4c-0.4-0.5-1-0.8-1.6-0.9
					c-0.8-0.2-2,0.3-2.1-0.2C95.1,39.3,96.2,38.6,98.1,39.2z"/>
				<path class="st4" d="M99.1,70.3c0,0.2-0.1,0.6,0,0.7c-1.9,1.8-1.9,1.8-3.7,3.5c-3.2-4-10.2-9.9-10.7-10.7c1.3-2,3.1-5.8,4-8.2
					c0.5,0.5,1.2-0.8,2-0.9c6.5-1.4,8.2,10.7,7.8,15.1C98.4,69.9,96.7,72.7,99.1,70.3z"/>
				<path class="st3" d="M97.4,41.8c-1.9,0.6-1.8,3.6-1.4,5.3c0,0.2,0.5,0.1,0.5,0.1c0.2,0.6-0.5,0.9,0,0.9
					c-0.4,0.2-0.8,0.3-1.2,0.5c-0.2-1.1-2.9-3.6,0.5-7.7C96.4,41,97,41.3,97.4,41.8z"/>
				<path class="st17" d="M96.5,47.2c0,0-0.4,0.1-0.5-0.1c-0.4-1.6-0.5-4.7,1.4-5.3C98.8,43.6,98.1,45.7,96.5,47.2z"/>
			</g>
			<path class="st34" d="M99.1,71c0.8,2.1,6.1,5,3,11.7c-0.5,1-0.7,0.6-0.9,0.9c-1.8-3.1-3.6-6.3-5.8-9.1
				C97.2,72.7,97.2,72.7,99.1,71z"/>
			<g>
				<g>
					<path class="st35" d="M127.3,30.1c0,1-0.2,1.4-0.7,2.3c-1.1-0.3,0.8-0.9,0.1-2.8C110,40.5,101.2,19.6,105,31.3
						c-3.6-1.1-7.8-2-9.9-5.5c2.9-3,2.9-3,5.8-6C106.2,8.5,127.6,19.9,127.3,30.1z"/>
					<path class="st21" d="M101.4,14.7c-0.2,2.6-0.2,2.6-0.5,5.1c-2.9,3-2.9,3-5.8,6c2.1,3.4,6.3,4.4,9.9,5.5
						c-3.8-11.7,5,9.2,21.7-1.6c0.7,1.9-1.2,2.5-0.1,2.8c-1.1,1.8-4.7,3.5-6.8,4.2c0.2-2.2-2.1-0.8-5-1.2c-2.7-0.4-5.4-1.5-8.1-1.8
						c-0.3,1-0.6,1.9-0.9,2.9c-0.1,0.2-0.1,0.6-0.2,0.9c0.8-1.6-3.2-2-3.4-1.9c-0.2,0.1-0.9,2.5-3.4,3.7c-0.3-0.2-0.5-0.2-0.7-0.2
						c-1.9-0.6-3.1,0.1-4.4,1.4c-2.5,2.5-1.8,4.6-2.1,5.5c-0.7,2.1-0.9,1.9-0.9,2c-0.1-0.4-0.7-0.7-0.7-0.7c-2.7-3.3-5-9.6-5.1-13.8
						c0-0.5-0.2-0.5-0.2-0.7c0.2-6,6.1-9.1,11.2-10.3C97.8,20.2,98.4,16.3,101.4,14.7z"/>
					<path class="st28" d="M127.3,30.1c0.3-10.2-21.2-21.6-26.4-10.3c0.2-2.6,0.2-2.6,0.5-5.1c6-3.2,16.3-0.4,21.4,3.7
						C125.6,20.8,130.3,26.8,127.3,30.1z"/>
				</g>
				<path class="st21" d="M98.8,39.5c1.7,1.4,0.6,5.4,0.5,7.4c1.5,3.6,1.6,7.6,3,11.2c2.3,5.9,9.6,12.9,13.5,7.5
					c1.4-2,3-9.9,0.9-8.1c0.5-0.6,0.9-1.2,1.2-1.9c0,0,0.1,0,0.2,0c0.5,6.8-1.9,14.4-10.2,13.3c-1.6-0.2-5.2-2.1-6.4-3.3
					c-4.7-4.4-5.2-11.3-6.3-17c0.4-0.2,0.8-0.3,1.2-0.5c3.4-1.7,4-6.1,1.6-8.9C98.4,39.3,98.6,39.2,98.8,39.5z"/>
				<path class="st35" d="M105.6,37.6c-0.1,0.3-0.2,0.6-0.2,0.9c-0.6,2.2-0.7,4.4-1.2,6.7c-0.3,1.5-3.5,5,1.6,11.8
					c3.4,4.5,7.2,5.2,11,0.5c2.1-1.8,0.5,6.1-0.9,8.1c-3.9,5.4-11.2-1.5-13.5-7.5c-1.4-3.6-1.5-7.6-3-11.2c0.2-1.9,1.2-6-0.5-7.4
					c2.5-1.3,3.1-3.6,3.4-3.7C102.4,35.6,106.5,36,105.6,37.6z"/>
				<g>
					<path class="st17" d="M119.9,36.7c-0.2,0.2-0.2,0.2-0.5,0.5c-0.4,0.7-0.2,1.4-0.2,2.1c-0.4-0.1-0.5,0.2-0.7,0.5
						c-0.5-1.7-2.4-1-3.5-0.9c-0.3,0-0.1-0.6-0.6-0.5c-0.5,0.2-1,0.8-1.3,0.9c-0.6-1.1-3.6-2.8-4.9-3c0.1-0.2-0.2-0.3,0.9-0.6
						c-2.7-2-2,0.8-3.3,1.1c0.3-1,0.6-2,0.9-2.9c2.6,0.3,5.3,1.4,8.1,1.8C117.7,35.9,120,34.5,119.9,36.7z"/>
					<path class="st36" d="M107.3,54.6c1.6,1.7,7.2,2.4,10,0.2c1-0.2,0.6,0.7,0.7,0.7c-0.3,0.7-0.7,1.3-1.2,1.9
						c-3.7,4.8-7.6,4-11-0.5C106.3,56,105.8,54.6,107.3,54.6z"/>
					<path class="st35" d="M117.3,54.9c-2.8,2.2-8.5,1.5-10-0.2c0,0-0.7-1-0.7-1.1c-1.4-5.4,4.8,2.6,10.2-0.8c1.1-0.7,2-2.4,2.2-3.7
						C120.3,50.4,118.8,53.7,117.3,54.9z"/>
					<path class="st37" d="M108.2,36.2c-0.1,0.1-1.2,0.6-0.7,2.1c-1.1,0.1-1.1,0.1-2.1,0.2c0.1-0.3,0.1-0.6,0.2-0.9
						c0.1-0.3,0.2-0.7,0.2-0.9c1.2-0.3,0.6-3,3.3-1.1C107.9,35.9,108.3,36,108.2,36.2z"/>
					<path class="st35" d="M113.1,39.2c-1.4,0.4-5.1,0.9-5.6-0.9c-0.5-1.6,0.6-2,0.7-2.1C109.5,36.4,112.5,38.1,113.1,39.2z"/>
					<path class="st38" d="M118.5,39.7c0,0,0,0.6-0.4,0.7c-0.7,0.1-3.6-0.5-3.2-1.6C116,38.7,118,37.9,118.5,39.7z"/>
					<g>
						<path class="st33" d="M113.1,39.2c0.3-0.1,0.8-0.7,1.3-0.9c0.5-0.1,0.2,0.5,0.6,0.5c-0.4,1.1,2.5,1.8,3.2,1.6
							c0.4-0.1,0.3-0.7,0.4-0.7c0.2-0.2,0.3-0.6,0.7-0.5c-0.2,3.1,0.3,6.8-0.2,9.8c-0.2,1.3-1.1,3-2.2,3.7
							c-5.4,3.5-11.5-4.6-10.2,0.8c0,0.1,0.7,1,0.7,1.1c-1.5,0-1,1.4-1.4,2.3c-5.1-6.7-1.9-10.3-1.6-11.8c0.4-2.2,0.6-4.4,1.2-6.7
							c1.1-0.1,1.1-0.1,2.1-0.2C108,40.1,111.7,39.6,113.1,39.2z"/>
						<g>
							<path class="st39" d="M114.1,44.8c1.5-0.5,1.7,2.1,0.5,2.3C113.3,47.4,113.2,45.1,114.1,44.8z"/>
							<path class="st40" d="M114.4,45.1c0.1,0,0.5,0.3,0.1,0.6C114,45.9,114,45.1,114.4,45.1z"/>
						</g>
					</g>
				</g>
			</g>
		</g>
	</g>
</g>
</svg>
